<?xml version="1.0" encoding="UTF-8"?>
<svg id="Ebene_1" data-name="Ebene 1" xmlns="http://www.w3.org/2000/svg" xmlns:xlink="http://www.w3.org/1999/xlink" viewBox="0 0 213.46 216.89">
  <defs>
    <style>
      .cls-1 {
        fill: #fff;
      }

      .cls-2 {
        fill: url(#orange);
        stroke: #fef8f8;
        stroke-miterlimit: 10;
        stroke-width: 4px;
      }
    </style>
    <linearGradient id="orange" x1="111.06" y1="187.27" x2="110.39" y2="21.44" gradientUnits="userSpaceOnUse">
      <stop offset="0" stop-color="#f0e043"/>
      <stop offset=".17" stop-color="#efda40"/>
      <stop offset=".38" stop-color="#efca38"/>
      <stop offset=".62" stop-color="#efaf2b"/>
      <stop offset=".87" stop-color="#ee8b19"/>
      <stop offset="1" stop-color="#ee760f"/>
    </linearGradient>
  </defs>
  <path class="cls-2" d="M109.9,195c-17.6-21.7-33.39-43.43-45.2-67.84-6.56-13.56-12.19-27.35-12.33-42.87-.3-31.54,21.26-56.58,53.44-59.88,25-2.57,53.64,12.86,61.51,45.2,3.98,16.35.21,32.35-6.39,47.64-11.71,27.11-28.52,51-46.77,73.96-.9,1.13-2.18,1.96-4.25,3.78Z"/>
  <path class="cls-1" d="M110.61,59.3c13.23.04,24.01,10.72,23.89,23.68-.12,13.04-10.86,23.45-24.16,23.41-13.23-.04-24.01-10.72-23.89-23.68.12-13.04,10.86-23.45,24.16-23.41Z"/>
</svg>