<?xml version="1.0" encoding="UTF-8"?>
<svg id="Ebene_1" data-name="Ebene 1" xmlns="http://www.w3.org/2000/svg" xmlns:xlink="http://www.w3.org/1999/xlink" viewBox="0 0 213.46 216.89">
  <defs>
    <style>
      .cls-1 {
        fill: url(#red);
      }

      .cls-1, .cls-2, .cls-3, .cls-4, .cls-5, .cls-6, .cls-7, .cls-8, .cls-9, .cls-10, .cls-11, .cls-12, .cls-13, .cls-14, .cls-15, .cls-16, .cls-17, .cls-18, .cls-19, .cls-20 {
        stroke: #faf8f8;
        stroke-miterlimit: 10;
        stroke-width: 2px;
      }

      .cls-2 {
        fill: url(#red-6);
      }

      .cls-3 {
        fill: url(#red-7);
      }

      .cls-4 {
        fill: url(#red-9);
      }

      .cls-5 {
        fill: url(#red-2);
      }

      .cls-6 {
        fill: url(#red-3);
      }

      .cls-7 {
        fill: url(#red-4);
      }

      .cls-8 {
        fill: url(#red-5);
      }

      .cls-9 {
        fill: url(#red-8);
      }

      .cls-21, .cls-20 {
        fill: #b2b1a6;
      }

      .cls-10 {
        fill: url(#red-14);
      }

      .cls-11 {
        fill: url(#red-12);
      }

      .cls-12 {
        fill: url(#red-11);
      }

      .cls-13 {
        fill: url(#red-13);
      }

      .cls-14 {
        fill: url(#red-10);
      }

      .cls-15 {
        fill: url(#red-15);
      }

      .cls-16 {
        fill: url(#red-16);
      }

      .cls-17 {
        fill: url(#red-17);
      }

      .cls-18 {
        fill: url(#red-18);
      }

      .cls-19 {
        fill: url(#red-19);
      }

      .cls-22 {
        fill: #fff;
      }
    </style>
    <linearGradient id="red" x1="78.36" y1="187.38" x2="77.69" y2="21.55" gradientUnits="userSpaceOnUse">
      <stop offset="0" stop-color="#e10c75"/>
      <stop offset=".2" stop-color="#de0c6f"/>
      <stop offset=".45" stop-color="#d60f5f"/>
      <stop offset=".73" stop-color="#c91344"/>
      <stop offset="1" stop-color="#ba1825"/>
    </linearGradient>
    <linearGradient id="red-2" data-name="red" x1="67.86" y1="187.43" x2="67.19" y2="21.59" xlink:href="#red"/>
    <linearGradient id="red-3" data-name="red" x1="120.77" y1="187.21" x2="120.1" y2="21.37" xlink:href="#red"/>
    <linearGradient id="red-4" data-name="red" x1="68.34" y1="187.42" x2="67.66" y2="21.59" xlink:href="#red"/>
    <linearGradient id="red-5" data-name="red" x1="118.48" y1="187.22" x2="117.81" y2="21.38" xlink:href="#red"/>
    <linearGradient id="red-6" data-name="red" x1="125.67" y1="187.19" x2="125" y2="21.35" xlink:href="#red"/>
    <linearGradient id="red-7" data-name="red" x1="124.72" y1="187.19" x2="124.04" y2="21.36" xlink:href="#red"/>
    <linearGradient id="red-8" data-name="red" x1="116.13" y1="187.23" x2="115.46" y2="21.39" xlink:href="#red"/>
    <linearGradient id="red-9" data-name="red" x1="142.58" y1="187.12" x2="141.91" y2="21.28" xlink:href="#red"/>
    <linearGradient id="red-10" data-name="red" x1="75.25" y1="187.4" x2="74.57" y2="21.56" xlink:href="#red"/>
    <linearGradient id="red-11" data-name="red" x1="133.17" y1="187.16" x2="132.49" y2="21.32" xlink:href="#red"/>
    <linearGradient id="red-12" data-name="red" x1="86.9" y1="187.35" x2="86.22" y2="21.51" xlink:href="#red"/>
    <linearGradient id="red-13" data-name="red" x1="117.82" y1="187.22" x2="117.14" y2="21.38" xlink:href="#red"/>
    <linearGradient id="red-14" data-name="red" x1="87.21" y1="187.35" x2="86.53" y2="21.51" xlink:href="#red"/>
    <linearGradient id="red-15" data-name="red" x1="112.73" y1="187.24" x2="112.05" y2="21.41" xlink:href="#red"/>
    <linearGradient id="red-16" data-name="red" x1="106.2" y1="187.27" x2="105.52" y2="21.43" xlink:href="#red"/>
    <linearGradient id="red-17" data-name="red" x1="90.74" y1="187.33" x2="90.06" y2="21.49" xlink:href="#red"/>
    <linearGradient id="red-18" data-name="red" x1="99.72" y1="187.3" x2="99.05" y2="21.46" xlink:href="#red"/>
    <linearGradient id="red-19" data-name="red" x1="121.23" y1="187.21" x2="120.55" y2="21.37" xlink:href="#red"/>
  </defs>
  <g>
    <path class="cls-21" d="M106.16,53.29c-13.31-.04-24.05,10.37-24.16,23.41-.12,12.96,10.67,23.64,23.89,23.68,13.31.04,24.05-10.37,24.16-23.41.12-12.95-10.67-23.64-23.89-23.68Z"/>
    <path class="cls-21" d="M106.16,53.29c13.23.04,24.01,10.72,23.89,23.68-.12,13.04-10.86,23.45-24.16,23.41-13.23-.04-24.01-10.72-23.89-23.68.12-13.04,10.86-23.45,24.16-23.41Z"/>
  </g>
  <g>
    <g>
      <path class="cls-1" d="M101.5,24.41c-6.93.71-13.37,2.44-19.2,5.01l-29.08,29.08c-3.34,7.59-5.14,16.09-5.14,25.14l59.5-59.5c-2.04-.02-4.07.05-6.07.26Z"/>
      <path class="cls-5" d="M82.19,76.7c.03-3.24.71-6.31,1.93-9.1l-33.75,33.75c1.29,5.09,3.06,10.04,5.08,14.92l29.15-29.15c-1.57-3.15-2.44-6.69-2.41-10.42Z"/>
      <path class="cls-6" d="M84.44,167.28l80.07-80.07c.36-5.81-.06-11.68-1.5-17.6-.06-.24-.13-.47-.19-.71l-86.45,86.45c2.6,4.02,5.29,8,8.07,11.93Z"/>
      <path class="cls-7" d="M53.21,58.51l29.08-29.08c-13.27,5.86-23.4,16.16-29.08,29.08Z"/>
      <path class="cls-8" d="M105.6,194.99c2.07-1.82,3.35-2.65,4.25-3.78,8.94-11.25,17.53-22.73,25.35-34.69l-33.55,33.55c1.31,1.64,2.62,3.28,3.95,4.92Z"/>
      <path class="cls-2" d="M101.65,190.07l33.55-33.55c8.14-12.45,15.44-25.44,21.41-39.27.52-1.21,1.02-2.43,1.51-3.65l-65.23,65.23c2.85,3.76,5.78,7.51,8.75,11.25Z"/>
      <path class="cls-3" d="M92.89,178.82l65.23-65.23c3.42-8.6,5.83-17.42,6.38-26.38l-80.07,80.07c2.74,3.88,5.56,7.72,8.45,11.55Z"/>
      <path class="cls-9" d="M112.04,99.68l-43.26,43.26c2.42,4.2,4.95,8.33,7.59,12.41l86.45-86.45c-1.34-5.26-3.24-10.07-5.58-14.42l-27.6,27.6c-2.01,8.66-8.84,15.46-17.6,17.6Z"/>
      <path class="cls-4" d="M130.25,76.97c-.02,1.76-.23,3.47-.61,5.11l27.6-27.6c-2.35-4.37-5.15-8.27-8.29-11.71l-22.06,22.06c2.17,3.56,3.4,7.72,3.36,12.14Z"/>
      <path class="cls-14" d="M84.6,87.12l-29.15,29.15c1.53,3.66,3.2,7.29,4.94,10.89.45.93.92,1.86,1.38,2.78l32.61-32.61c-4.22-2.35-7.65-5.92-9.79-10.21Z"/>
      <path class="cls-12" d="M126.89,64.83l22.06-22.06c-3.27-3.58-6.91-6.64-10.8-9.2l-21.87,21.87c4.43,2.01,8.14,5.3,10.62,9.38Z"/>
      <path class="cls-11" d="M48.07,83.65c0,.21,0,.43,0,.64.06,5.91.91,11.57,2.31,17.06l33.75-33.75c2.36-5.43,6.74-9.79,12.22-12.21l28.33-28.33c-5.6-1.86-11.39-2.83-17.1-2.9l-59.5,59.5Z"/>
      <path class="cls-13" d="M106.35,53.29c3.53.01,6.89.79,9.91,2.16l21.87-21.87c-4.25-2.79-8.79-4.97-13.47-6.53l-28.33,28.33c3.05-1.35,6.44-2.1,10.02-2.09Z"/>
      <path class="cls-10" d="M106.09,100.38c-4.24-.01-8.23-1.12-11.7-3.05l-32.61,32.61c2.21,4.41,4.55,8.74,7,13l43.26-43.26c-1.9.46-3.9.71-5.95.7Z"/>
      <path class="cls-20" d="M106.09,100.38c2.06,0,4.05-.24,5.95-.7l17.6-17.6c.38-1.64.6-3.35.61-5.11.04-4.42-1.19-8.58-3.36-12.14l-32.5,32.5c3.46,1.93,7.45,3.04,11.7,3.05Z"/>
      <path class="cls-15" d="M106.09,100.38c2.06,0,4.05-.24,5.95-.7l17.6-17.6c.38-1.64.6-3.35.61-5.11.04-4.42-1.19-8.58-3.36-12.14l-32.5,32.5c3.46,1.93,7.45,3.04,11.7,3.05Z"/>
      <path class="cls-20" d="M94.39,97.33l32.5-32.5c-2.48-4.08-6.19-7.37-10.62-9.38l-31.67,31.67c2.14,4.29,5.57,7.86,9.79,10.21Z"/>
      <path class="cls-16" d="M94.39,97.33l32.5-32.5c-2.48-4.08-6.19-7.37-10.62-9.38l-31.67,31.67c2.14,4.29,5.57,7.86,9.79,10.21Z"/>
      <path class="cls-20" d="M84.12,67.6l12.22-12.21c-5.48,2.42-9.85,6.78-12.22,12.21Z"/>
      <path class="cls-17" d="M84.12,67.6l12.22-12.21c-5.48,2.42-9.85,6.78-12.22,12.21Z"/>
      <path class="cls-20" d="M84.6,87.12l31.67-31.67c-3.02-1.37-6.38-2.15-9.91-2.16-3.58-.01-6.97.74-10.02,2.09l-12.22,12.21c-1.21,2.79-1.9,5.87-1.93,9.1-.03,3.73.84,7.26,2.41,10.42Z"/>
      <path class="cls-18" d="M84.6,87.12l31.67-31.67c-3.02-1.37-6.38-2.15-9.91-2.16-3.58-.01-6.97.74-10.02,2.09l-12.22,12.21c-1.21,2.79-1.9,5.87-1.93,9.1-.03,3.73.84,7.26,2.41,10.42Z"/>
      <path class="cls-20" d="M129.64,82.08l-17.6,17.6c8.76-2.13,15.58-8.93,17.6-17.6Z"/>
      <path class="cls-19" d="M129.64,82.08l-17.6,17.6c8.76-2.13,15.58-8.93,17.6-17.6Z"/>
    </g>
    <path class="cls-22" d="M106.55,53.11c13.23.04,24.01,10.72,23.89,23.68-.12,13.04-10.86,23.45-24.16,23.41-13.23-.04-24.01-10.72-23.89-23.68.12-13.04,10.86-23.45,24.16-23.41Z"/>
  </g>
</svg>