<?xml version="1.0" encoding="UTF-8"?>
<svg id="Ebene_1" data-name="Ebene 1" xmlns="http://www.w3.org/2000/svg" xmlns:xlink="http://www.w3.org/1999/xlink" viewBox="0 0 213.46 216.89">
  <defs>
    <style>
      .cls-1 {
        fill: #b2b1a6;
      }

      .cls-2 {
        fill: url(#orange-15);
      }

      .cls-2, .cls-3, .cls-4, .cls-5, .cls-6, .cls-7, .cls-8, .cls-9, .cls-10, .cls-11, .cls-12, .cls-13, .cls-14, .cls-15, .cls-16, .cls-17, .cls-18, .cls-19, .cls-20, .cls-21, .cls-22, .cls-23, .cls-24, .cls-25, .cls-26 {
        stroke: #fef8f8;
        stroke-miterlimit: 10;
      }

      .cls-2, .cls-3, .cls-4, .cls-5, .cls-6, .cls-7, .cls-8, .cls-9, .cls-10, .cls-11, .cls-19, .cls-25, .cls-26 {
        stroke-width: 3px;
      }

      .cls-3 {
        fill: url(#orange-20);
      }

      .cls-4 {
        fill: url(#orange-21);
      }

      .cls-5 {
        fill: url(#orange-23);
      }

      .cls-6 {
        fill: url(#orange-24);
      }

      .cls-7 {
        fill: url(#orange-22);
      }

      .cls-8 {
        fill: url(#orange-19);
      }

      .cls-9 {
        fill: url(#orange-18);
      }

      .cls-10 {
        fill: url(#orange-16);
      }

      .cls-11 {
        fill: url(#orange-17);
      }

      .cls-12 {
        fill: url(#orange-8);
      }

      .cls-12, .cls-13, .cls-14, .cls-15, .cls-16, .cls-17, .cls-18, .cls-20, .cls-21, .cls-22, .cls-23, .cls-24 {
        stroke-width: 2px;
      }

      .cls-13 {
        fill: url(#orange-9);
      }

      .cls-14 {
        fill: url(#orange-5);
      }

      .cls-15 {
        fill: url(#orange-4);
      }

      .cls-16 {
        fill: url(#orange-7);
      }

      .cls-17 {
        fill: url(#orange-6);
      }

      .cls-18 {
        fill: url(#orange);
      }

      .cls-19 {
        fill: #faf8f8;
      }

      .cls-20 {
        fill: url(#orange-11);
      }

      .cls-21 {
        fill: url(#orange-13);
      }

      .cls-22 {
        fill: url(#orange-10);
      }

      .cls-23 {
        fill: url(#orange-12);
      }

      .cls-24 {
        fill: url(#orange-14);
      }

      .cls-25 {
        fill: url(#orange-3);
      }

      .cls-26 {
        fill: url(#orange-2);
      }
    </style>
    <linearGradient id="orange" x1="78.97" y1="187.38" x2="78.29" y2="21.55" gradientUnits="userSpaceOnUse">
      <stop offset="0" stop-color="#f0e043"/>
      <stop offset=".17" stop-color="#efda40"/>
      <stop offset=".38" stop-color="#efca38"/>
      <stop offset=".62" stop-color="#efaf2b"/>
      <stop offset=".87" stop-color="#ee8b19"/>
      <stop offset="1" stop-color="#ee760f"/>
    </linearGradient>
    <linearGradient id="orange-2" data-name="orange" x1="68.47" y1="187.43" x2="67.79" y2="21.59" xlink:href="#orange"/>
    <linearGradient id="orange-3" data-name="orange" x1="121.38" y1="187.21" x2="120.7" y2="21.37" xlink:href="#orange"/>
    <linearGradient id="orange-4" data-name="orange" x1="68.94" y1="187.42" x2="68.27" y2="21.59" xlink:href="#orange"/>
    <linearGradient id="orange-5" data-name="orange" x1="119.09" y1="187.22" x2="118.41" y2="21.38" xlink:href="#orange"/>
    <linearGradient id="orange-6" data-name="orange" x1="126.28" y1="187.19" x2="125.61" y2="21.35" xlink:href="#orange"/>
    <linearGradient id="orange-7" data-name="orange" x1="125.32" y1="187.19" x2="124.65" y2="21.36" xlink:href="#orange"/>
    <linearGradient id="orange-8" data-name="orange" x1="116.74" y1="187.23" x2="116.06" y2="21.39" xlink:href="#orange"/>
    <linearGradient id="orange-9" data-name="orange" x1="143.19" y1="187.12" x2="142.51" y2="21.28" xlink:href="#orange"/>
    <linearGradient id="orange-10" data-name="orange" x1="75.85" y1="187.4" x2="75.18" y2="21.56" xlink:href="#orange"/>
    <linearGradient id="orange-11" data-name="orange" x1="133.77" y1="187.16" x2="133.1" y2="21.32" xlink:href="#orange"/>
    <linearGradient id="orange-12" data-name="orange" x1="87.51" y1="187.35" x2="86.83" y2="21.51" xlink:href="#orange"/>
    <linearGradient id="orange-13" data-name="orange" x1="118.42" y1="187.22" x2="117.75" y2="21.38" xlink:href="#orange"/>
    <linearGradient id="orange-14" data-name="orange" x1="87.81" y1="187.35" x2="87.14" y2="21.51" xlink:href="#orange"/>
    <linearGradient id="orange-15" data-name="orange" x1="94.99" y1="82.6" x2="130.85" y2="82.6" xlink:href="#orange"/>
    <linearGradient id="orange-16" data-name="orange" x1="113.33" y1="187.24" x2="112.66" y2="21.41" xlink:href="#orange"/>
    <linearGradient id="orange-17" data-name="orange" x1="85.2" y1="76.39" x2="127.49" y2="76.39" xlink:href="#orange"/>
    <linearGradient id="orange-18" data-name="orange" x1="106.8" y1="187.27" x2="106.13" y2="21.43" xlink:href="#orange"/>
    <linearGradient id="orange-19" data-name="orange" x1="84.72" y1="61.49" x2="96.94" y2="61.49" xlink:href="#orange"/>
    <linearGradient id="orange-20" data-name="orange" x1="91.34" y1="187.33" x2="90.67" y2="21.49" xlink:href="#orange"/>
    <linearGradient id="orange-21" data-name="orange" x1="82.79" y1="70.21" x2="116.87" y2="70.21" xlink:href="#orange"/>
    <linearGradient id="orange-22" data-name="orange" x1="100.33" y1="187.3" x2="99.65" y2="21.46" xlink:href="#orange"/>
    <linearGradient id="orange-23" data-name="orange" x1="112.65" y1="90.88" x2="130.24" y2="90.88" xlink:href="#orange"/>
    <linearGradient id="orange-24" data-name="orange" x1="121.84" y1="187.21" x2="121.16" y2="21.37" xlink:href="#orange"/>
  </defs>
  <g>
    <path class="cls-1" d="M106.48,53.29c-13.31-.04-24.05,10.37-24.16,23.41-.12,12.96,10.67,23.64,23.89,23.68,13.31.04,24.05-10.37,24.16-23.41.12-12.95-10.67-23.64-23.89-23.68Z"/>
    <path class="cls-1" d="M106.48,53.29c13.23.04,24.01,10.72,23.89,23.68-.12,13.04-10.86,23.45-24.16,23.41-13.23-.04-24.01-10.72-23.89-23.68.12-13.04,10.86-23.45,24.16-23.41Z"/>
  </g>
  <g>
    <g>
      <path class="cls-18" d="M102.1,24.41c-6.93.71-13.37,2.44-19.2,5.01l-29.08,29.08c-3.34,7.59-5.14,16.09-5.14,25.14l59.5-59.5c-2.04-.02-4.07.05-6.07.26Z"/>
      <path class="cls-26" d="M82.8,76.7c.03-3.24.71-6.31,1.93-9.1l-33.75,33.75c1.29,5.09,3.06,10.04,5.08,14.92l29.15-29.15c-1.57-3.15-2.44-6.69-2.41-10.42Z"/>
      <path class="cls-25" d="M85.04,167.28l80.07-80.07c.36-5.81-.06-11.68-1.5-17.6-.06-.24-.13-.47-.19-.71l-86.45,86.45c2.6,4.02,5.29,8,8.07,11.93Z"/>
      <path class="cls-15" d="M53.82,58.51l29.08-29.08c-13.27,5.86-23.4,16.16-29.08,29.08Z"/>
      <path class="cls-14" d="M106.21,194.99c2.07-1.82,3.35-2.65,4.25-3.78,8.94-11.25,17.53-22.73,25.35-34.69l-33.55,33.55c1.31,1.64,2.62,3.28,3.95,4.92Z"/>
      <path class="cls-17" d="M102.25,190.07l33.55-33.55c8.14-12.45,15.44-25.44,21.41-39.27.52-1.21,1.02-2.43,1.51-3.65l-65.23,65.23c2.85,3.76,5.78,7.51,8.75,11.25Z"/>
      <path class="cls-16" d="M93.5,178.82l65.23-65.23c3.42-8.6,5.83-17.42,6.38-26.38l-80.07,80.07c2.74,3.88,5.56,7.72,8.45,11.55Z"/>
      <path class="cls-12" d="M112.65,99.68l-43.26,43.26c2.42,4.2,4.95,8.33,7.59,12.41l86.45-86.45c-1.34-5.26-3.24-10.07-5.58-14.42l-27.6,27.6c-2.01,8.66-8.84,15.46-17.6,17.6Z"/>
      <path class="cls-13" d="M130.85,76.97c-.02,1.76-.23,3.47-.61,5.11l27.6-27.6c-2.35-4.37-5.15-8.27-8.29-11.71l-22.06,22.06c2.17,3.56,3.4,7.72,3.36,12.14Z"/>
      <path class="cls-22" d="M85.2,87.12l-29.15,29.15c1.53,3.66,3.2,7.29,4.94,10.89.45.93.92,1.86,1.38,2.78l32.61-32.61c-4.22-2.35-7.65-5.92-9.79-10.21Z"/>
      <path class="cls-20" d="M127.49,64.83l22.06-22.06c-3.27-3.58-6.91-6.64-10.8-9.2l-21.87,21.87c4.43,2.01,8.14,5.3,10.62,9.38Z"/>
      <path class="cls-23" d="M48.67,83.65c0,.21,0,.43,0,.64.06,5.91.91,11.57,2.31,17.06l33.75-33.75c2.36-5.43,6.74-9.79,12.22-12.21l28.33-28.33c-5.6-1.86-11.39-2.83-17.1-2.9l-59.5,59.5Z"/>
      <path class="cls-21" d="M106.96,53.29c3.53.01,6.89.79,9.91,2.16l21.87-21.87c-4.25-2.79-8.79-4.97-13.47-6.53l-28.33,28.33c3.05-1.35,6.44-2.1,10.02-2.09Z"/>
      <path class="cls-24" d="M106.69,100.38c-4.24-.01-8.23-1.12-11.7-3.05l-32.61,32.61c2.21,4.41,4.55,8.74,7,13l43.26-43.26c-1.9.46-3.9.71-5.95.7Z"/>
      <path class="cls-2" d="M106.69,100.38c2.06,0,4.05-.24,5.95-.7l17.6-17.6c.38-1.64.6-3.35.61-5.11.04-4.42-1.19-8.58-3.36-12.14l-32.5,32.5c3.46,1.93,7.45,3.04,11.7,3.05Z"/>
      <path class="cls-10" d="M106.69,100.38c2.06,0,4.05-.24,5.95-.7l17.6-17.6c.38-1.64.6-3.35.61-5.11.04-4.42-1.19-8.58-3.36-12.14l-32.5,32.5c3.46,1.93,7.45,3.04,11.7,3.05Z"/>
      <path class="cls-11" d="M94.99,97.33l32.5-32.5c-2.48-4.08-6.19-7.37-10.62-9.38l-31.67,31.67c2.14,4.29,5.57,7.86,9.79,10.21Z"/>
      <path class="cls-9" d="M94.99,97.33l32.5-32.5c-2.48-4.08-6.19-7.37-10.62-9.38l-31.67,31.67c2.14,4.29,5.57,7.86,9.79,10.21Z"/>
      <path class="cls-8" d="M84.72,67.6l12.22-12.21c-5.48,2.42-9.85,6.78-12.22,12.21Z"/>
      <path class="cls-3" d="M84.72,67.6l12.22-12.21c-5.48,2.42-9.85,6.78-12.22,12.21Z"/>
      <path class="cls-4" d="M85.2,87.12l31.67-31.67c-3.02-1.37-6.38-2.15-9.91-2.16-3.58-.01-6.97.74-10.02,2.09l-12.22,12.21c-1.21,2.79-1.9,5.87-1.93,9.1-.03,3.73.84,7.26,2.41,10.42Z"/>
      <path class="cls-7" d="M85.2,87.12l31.67-31.67c-3.02-1.37-6.38-2.15-9.91-2.16-3.58-.01-6.97.74-10.02,2.09l-12.22,12.21c-1.21,2.79-1.9,5.87-1.93,9.1-.03,3.73.84,7.26,2.41,10.42Z"/>
      <path class="cls-5" d="M130.24,82.08l-17.6,17.6c8.76-2.13,15.58-8.93,17.6-17.6Z"/>
      <path class="cls-6" d="M130.24,82.08l-17.6,17.6c8.76-2.13,15.58-8.93,17.6-17.6Z"/>
    </g>
    <path class="cls-19" d="M107.16,53.11c13.23.04,24.01,10.72,23.89,23.68-.12,13.04-10.86,23.45-24.16,23.41-13.23-.04-24.01-10.72-23.89-23.68.12-13.04,10.86-23.45,24.16-23.41Z"/>
  </g>
</svg>