<?xml version="1.0" encoding="UTF-8"?>
<svg id="Ebene_1" data-name="Ebene 1" xmlns="http://www.w3.org/2000/svg" viewBox="0 0 213.46 216.89">
  <defs>
    <style>
      .cls-1 {
        fill: #3ea2db;
        stroke: #fef8f8;
        stroke-miterlimit: 10;
        stroke-width: 4px;
      }

      .cls-2 {
        fill: #fff;
      }
    </style>
  </defs>
  <path class="cls-1" d="M105.98,193.96c-17.6-21.7-33.39-43.43-45.2-67.84-6.56-13.56-12.19-27.35-12.33-42.87-.3-31.54,21.26-56.58,53.44-59.88,25-2.57,53.64,12.86,61.51,45.2,3.98,16.35.21,32.35-6.39,47.64-11.71,27.11-28.52,51-46.77,73.96-.9,1.13-2.18,1.96-4.25,3.78Z"/>
  <g>
    <path class="cls-2" d="M143.53,106.76h-73.93v-48.47h73.93v48.47ZM147.41,54.4h-81.7v56.24h38.91v31.59h3.89v-31.59h38.91v-56.24Z"/>
    <rect class="cls-2" x="84.39" y="65.09" width="8.85" height="8.85"/>
    <rect class="cls-2" x="75.54" y="73.93" width="8.85" height="8.85"/>
    <rect class="cls-2" x="84.39" y="91.62" width="8.85" height="8.85"/>
    <rect class="cls-2" x="84.39" y="82.78" width="8.85" height="8.85"/>
    <rect class="cls-2" x="75.54" y="91.62" width="8.85" height="8.85"/>
    <rect class="cls-2" x="93.24" y="65.09" width="8.85" height="8.85"/>
    <rect class="cls-2" x="102.09" y="65.09" width="8.85" height="8.85"/>
    <rect class="cls-2" x="93.24" y="73.93" width="8.85" height="8.85"/>
    <rect class="cls-2" x="102.09" y="91.62" width="8.85" height="8.85"/>
    <rect class="cls-2" x="102.09" y="82.78" width="8.85" height="8.85"/>
    <rect class="cls-2" x="119.8" y="65.09" width="8.85" height="8.85"/>
    <rect class="cls-2" x="110.94" y="73.93" width="8.85" height="8.85"/>
    <rect class="cls-2" x="119.8" y="82.78" width="8.85" height="8.85"/>
    <rect class="cls-2" x="128.65" y="73.93" width="8.85" height="8.85"/>
    <rect class="cls-2" x="128.65" y="65.09" width="8.85" height="8.85"/>
    <rect class="cls-2" x="128.65" y="91.62" width="8.85" height="8.85"/>
    <rect class="cls-2" x="110.94" y="91.62" width="8.85" height="8.85"/>
  </g>
</svg>