<?xml version="1.0" encoding="UTF-8"?>
<svg id="Ebene_2" data-name="Ebene 2" xmlns="http://www.w3.org/2000/svg" xmlns:xlink="http://www.w3.org/1999/xlink" viewBox="0 0 118.6 173.28">
  <defs>
    <style>
      .cls-1 {
        fill: url(#red);
      }

      .cls-1, .cls-2, .cls-3, .cls-4, .cls-5, .cls-6, .cls-7, .cls-8, .cls-9, .cls-10, .cls-11, .cls-12, .cls-13, .cls-14, .cls-15, .cls-16, .cls-17, .cls-18, .cls-19, .cls-20 {
        stroke: #faf8f8;
        stroke-miterlimit: 10;
        stroke-width: 2px;
      }

      .cls-2 {
        fill: url(#red-6);
      }

      .cls-3 {
        fill: url(#red-7);
      }

      .cls-4 {
        fill: url(#red-9);
      }

      .cls-5 {
        fill: url(#red-2);
      }

      .cls-6 {
        fill: url(#red-3);
      }

      .cls-7 {
        fill: url(#red-4);
      }

      .cls-8 {
        fill: url(#red-5);
      }

      .cls-9 {
        fill: url(#red-8);
      }

      .cls-21, .cls-20 {
        fill: #b2b1a6;
      }

      .cls-10 {
        fill: url(#red-14);
      }

      .cls-11 {
        fill: url(#red-12);
      }

      .cls-12 {
        fill: url(#red-11);
      }

      .cls-13 {
        fill: url(#red-13);
      }

      .cls-14 {
        fill: url(#red-10);
      }

      .cls-15 {
        fill: url(#red-15);
      }

      .cls-16 {
        fill: url(#red-16);
      }

      .cls-17 {
        fill: url(#red-17);
      }

      .cls-18 {
        fill: url(#red-18);
      }

      .cls-19 {
        fill: url(#red-19);
      }

      .cls-22 {
        fill: #fff;
      }
    </style>
    <linearGradient id="red" x1="31.3" y1="164.24" x2="30.63" y2="-1.6" gradientUnits="userSpaceOnUse">
      <stop offset="0" stop-color="#e10c75"/>
      <stop offset=".2" stop-color="#de0c6f"/>
      <stop offset=".45" stop-color="#d60f5f"/>
      <stop offset=".73" stop-color="#c91344"/>
      <stop offset="1" stop-color="#ba1825"/>
    </linearGradient>
    <linearGradient id="red-2" data-name="red" x1="20.8" y1="164.28" x2="20.13" y2="-1.56" xlink:href="#red"/>
    <linearGradient id="red-3" data-name="red" x1="73.71" y1="164.07" x2="73.04" y2="-1.77" xlink:href="#red"/>
    <linearGradient id="red-4" data-name="red" x1="21.28" y1="164.28" x2="20.6" y2="-1.56" xlink:href="#red"/>
    <linearGradient id="red-5" data-name="red" x1="71.42" y1="164.08" x2="70.75" y2="-1.76" xlink:href="#red"/>
    <linearGradient id="red-6" data-name="red" x1="78.61" y1="164.05" x2="77.94" y2="-1.79" xlink:href="#red"/>
    <linearGradient id="red-7" data-name="red" x1="77.66" y1="164.05" x2="76.98" y2="-1.79" xlink:href="#red"/>
    <linearGradient id="red-8" data-name="red" x1="69.07" y1="164.08" x2="68.39" y2="-1.75" xlink:href="#red"/>
    <linearGradient id="red-9" data-name="red" x1="95.52" y1="163.98" x2="94.85" y2="-1.86" xlink:href="#red"/>
    <linearGradient id="red-10" data-name="red" x1="28.19" y1="164.25" x2="27.51" y2="-1.59" xlink:href="#red"/>
    <linearGradient id="red-11" data-name="red" x1="86.11" y1="164.02" x2="85.43" y2="-1.82" xlink:href="#red"/>
    <linearGradient id="red-12" data-name="red" x1="39.84" y1="164.2" x2="39.16" y2="-1.63" xlink:href="#red"/>
    <linearGradient id="red-13" data-name="red" x1="70.76" y1="164.08" x2="70.08" y2="-1.76" xlink:href="#red"/>
    <linearGradient id="red-14" data-name="red" x1="40.14" y1="164.2" x2="39.47" y2="-1.63" xlink:href="#red"/>
    <linearGradient id="red-15" data-name="red" x1="65.67" y1="164.1" x2="64.99" y2="-1.74" xlink:href="#red"/>
    <linearGradient id="red-16" data-name="red" x1="59.14" y1="164.13" x2="58.46" y2="-1.71" xlink:href="#red"/>
    <linearGradient id="red-17" data-name="red" x1="43.68" y1="164.19" x2="43" y2="-1.65" xlink:href="#red"/>
    <linearGradient id="red-18" data-name="red" x1="52.66" y1="164.15" x2="51.99" y2="-1.69" xlink:href="#red"/>
    <linearGradient id="red-19" data-name="red" x1="74.17" y1="164.06" x2="73.49" y2="-1.77" xlink:href="#red"/>
  </defs>
  <g id="Ebene_1-2" data-name="Ebene 1">
    <g>
      <g>
        <path class="cls-21" d="M59.1,30.15c-13.31-.04-24.05,10.37-24.16,23.41-.12,12.96,10.67,23.64,23.89,23.68,13.31.04,24.05-10.37,24.16-23.41.12-12.95-10.67-23.64-23.89-23.68Z"/>
        <path class="cls-21" d="M59.1,30.15c13.23.04,24.01,10.72,23.89,23.68-.12,13.04-10.86,23.45-24.16,23.41-13.23-.04-24.01-10.72-23.89-23.68.12-13.04,10.86-23.45,24.16-23.41Z"/>
      </g>
      <g>
        <g>
          <path class="cls-1" d="M54.44,1.26c-6.93.71-13.37,2.44-19.2,5.01L6.15,35.36c-3.34,7.59-5.14,16.09-5.14,25.14L60.51,1.01c-2.04-.02-4.07.05-6.07.26Z"/>
          <path class="cls-5" d="M35.13,53.56c.03-3.24.71-6.31,1.93-9.1L3.31,78.21c1.29,5.09,3.06,10.04,5.08,14.92l29.15-29.15c-1.57-3.15-2.44-6.69-2.41-10.42Z"/>
          <path class="cls-6" d="M37.38,144.13l80.07-80.07c.36-5.81-.06-11.68-1.5-17.6-.06-.24-.13-.47-.19-.71L29.31,132.2c2.6,4.02,5.29,8,8.07,11.93Z"/>
          <path class="cls-7" d="M6.15,35.36L35.23,6.28c-13.27,5.86-23.4,16.16-29.08,29.08Z"/>
          <path class="cls-8" d="M58.54,171.85c2.07-1.82,3.35-2.65,4.25-3.78,8.94-11.25,17.53-22.73,25.35-34.69l-33.55,33.55c1.31,1.64,2.62,3.28,3.95,4.92Z"/>
          <path class="cls-2" d="M54.59,166.93l33.55-33.55c8.14-12.45,15.44-25.44,21.41-39.27.52-1.21,1.02-2.43,1.51-3.65l-65.23,65.23c2.85,3.76,5.78,7.51,8.75,11.25Z"/>
          <path class="cls-3" d="M45.83,155.68l65.23-65.23c3.42-8.6,5.83-17.42,6.38-26.38l-80.07,80.07c2.74,3.88,5.56,7.72,8.45,11.55Z"/>
          <path class="cls-9" d="M64.98,76.53l-43.26,43.26c2.42,4.2,4.95,8.33,7.59,12.41L115.76,45.76c-1.34-5.26-3.24-10.07-5.58-14.42l-27.6,27.6c-2.01,8.66-8.84,15.46-17.6,17.6Z"/>
          <path class="cls-4" d="M83.19,53.83c-.02,1.76-.23,3.47-.61,5.11l27.6-27.6c-2.35-4.37-5.15-8.27-8.29-11.71l-22.06,22.06c2.17,3.56,3.4,7.72,3.36,12.14Z"/>
          <path class="cls-14" d="M37.54,63.97l-29.15,29.15c1.53,3.66,3.2,7.29,4.94,10.89.45.93.92,1.86,1.38,2.78l32.61-32.61c-4.22-2.35-7.65-5.92-9.79-10.21Z"/>
          <path class="cls-12" d="M79.83,41.68l22.06-22.06c-3.27-3.58-6.91-6.64-10.8-9.2l-21.87,21.87c4.43,2.01,8.14,5.3,10.62,9.38Z"/>
          <path class="cls-11" d="M1.01,60.5c0,.21,0,.43,0,.64.06,5.91.91,11.57,2.31,17.06l33.75-33.75c2.36-5.43,6.74-9.79,12.22-12.21L77.61,3.91c-5.6-1.86-11.39-2.83-17.1-2.9L1.01,60.5Z"/>
          <path class="cls-13" d="M59.29,30.15c3.53.01,6.89.79,9.91,2.16l21.87-21.87c-4.25-2.79-8.79-4.97-13.47-6.53l-28.33,28.33c3.05-1.35,6.44-2.1,10.02-2.09Z"/>
          <path class="cls-10" d="M59.02,77.24c-4.24-.01-8.23-1.12-11.7-3.05L14.72,106.79c2.21,4.41,4.55,8.74,7,13l43.26-43.26c-1.9.46-3.9.71-5.95.7Z"/>
          <path class="cls-20" d="M59.02,77.24c2.06,0,4.05-.24,5.95-.7l17.6-17.6c.38-1.64.6-3.35.61-5.11.04-4.42-1.19-8.58-3.36-12.14l-32.5,32.5c3.46,1.93,7.45,3.04,11.7,3.05Z"/>
          <path class="cls-15" d="M59.02,77.24c2.06,0,4.05-.24,5.95-.7l17.6-17.6c.38-1.64.6-3.35.61-5.11.04-4.42-1.19-8.58-3.36-12.14l-32.5,32.5c3.46,1.93,7.45,3.04,11.7,3.05Z"/>
          <path class="cls-20" d="M47.33,74.18l32.5-32.5c-2.48-4.08-6.19-7.37-10.62-9.38l-31.67,31.67c2.14,4.29,5.57,7.86,9.79,10.21Z"/>
          <path class="cls-16" d="M47.33,74.18l32.5-32.5c-2.48-4.08-6.19-7.37-10.62-9.38l-31.67,31.67c2.14,4.29,5.57,7.86,9.79,10.21Z"/>
          <path class="cls-20" d="M37.06,44.45l12.22-12.21c-5.48,2.42-9.85,6.78-12.22,12.21Z"/>
          <path class="cls-17" d="M37.06,44.45l12.22-12.21c-5.48,2.42-9.85,6.78-12.22,12.21Z"/>
          <path class="cls-20" d="M37.54,63.97l31.67-31.67c-3.02-1.37-6.38-2.15-9.91-2.16-3.58-.01-6.97.74-10.02,2.09l-12.22,12.21c-1.21,2.79-1.9,5.87-1.93,9.1-.03,3.73.84,7.26,2.41,10.42Z"/>
          <path class="cls-18" d="M37.54,63.97l31.67-31.67c-3.02-1.37-6.38-2.15-9.91-2.16-3.58-.01-6.97.74-10.02,2.09l-12.22,12.21c-1.21,2.79-1.9,5.87-1.93,9.1-.03,3.73.84,7.26,2.41,10.42Z"/>
          <path class="cls-20" d="M82.58,58.94l-17.6,17.6c8.76-2.13,15.58-8.93,17.6-17.6Z"/>
          <path class="cls-19" d="M82.58,58.94l-17.6,17.6c8.76-2.13,15.58-8.93,17.6-17.6Z"/>
        </g>
        <path class="cls-22" d="M59.49,29.96c13.23.04,24.01,10.72,23.89,23.68-.12,13.04-10.86,23.45-24.16,23.41-13.23-.04-24.01-10.72-23.89-23.68.12-13.04,10.86-23.45,24.16-23.41Z"/>
      </g>
    </g>
  </g>
</svg>