<?xml version="1.0" encoding="UTF-8"?>
<svg id="Ebene_1" data-name="Ebene 1" xmlns="http://www.w3.org/2000/svg" viewBox="0 0 213.46 216.89">
  <defs>
    <style>
      .cls-1 {
        fill: #25a737;
      }

      .cls-2 {
        fill: #d7d7d7;
        stroke: #fef8f8;
        stroke-miterlimit: 10;
        stroke-width: 4px;
      }
    </style>
  </defs>
  <path class="cls-2" d="M105.98,193.96c-17.6-21.7-33.39-43.43-45.2-67.84-6.56-13.56-12.19-27.35-12.33-42.87-.3-31.54,21.26-56.58,53.44-59.88,25-2.57,53.64,12.86,61.51,45.2,3.98,16.35.21,32.35-6.39,47.64-11.71,27.11-28.52,51-46.77,73.96-.9,1.13-2.18,1.96-4.25,3.78Z"/>
  <g>
    <path class="cls-1" d="M144.94,52.97c-3.45-1.18-6.83-1.95-10.49-2.4-7.4-.91-14.76-.92-22.16,0-3.7.46-7.14,1.25-10.6,2.45-1.26.44-2.07,1.53-2.07,2.87v1.84c2.69.05,5.16-.58,6.23,1.7l3.67,7.8c.43.18.94.41,1.22.68,1.44,1.42,3.55,1.38,5,.02,1.1-1.03,2.74-.97,3.73.1.9.98.97,2.55-.04,3.58-1.74,1.77-4.05,2.68-6.63,2.58l5.63,12.06c5.91-1.84,12.31-.29,16.61,4.07,1.05,1.07.93,2.77-.02,3.69-1.01.99-2.64,1.03-3.67,0-2.98-2.97-7.29-4.01-11.3-2.79,1.46,5.85,1.38,11.74-.14,17.45,1.36.39,2.79,1.08,4.19.77,12.64-2.81,21.77-13.48,23.01-26.38l.04-27.32c0-1.39-1-2.37-2.21-2.78ZM141.1,71.48c-3.3,3.53-8.76,3.62-12.28.36-1.11-1.03-1.26-2.63-.29-3.75.96-1.12,2.73-1.22,3.83-.13,1.37,1.35,3.51,1.35,4.94-.03,1.07-1.03,2.65-.94,3.62-.01.93.89,1.15,2.53.19,3.56Z"/>
    <path class="cls-1" d="M112.93,86.81l-10.35-22.02c-.57-1.22-1.6-1.91-2.96-1.77-3.27.33-6.39.94-9.59,1.92-10.28,3.16-22.53,9.17-30.17,16.84l-.64,1.08v1.55s10.88,23.08,10.88,23.08c5.78,12.3,19.33,18.98,32.63,16.26.78-.16,1.54-.55,2.13-1.02,10.73-8.65,13.93-23.46,8.07-35.91ZM91.73,85.82c1.4-4.69,6.46-7.19,11.06-5.66,1.39.46,2.11,1.74,1.85,3.06-.26,1.32-1.71,2.45-3.19,1.97-2.01-.65-3.95.1-4.72,2.06-.51,1.29-1.85,2-3.21,1.6-1.13-.34-2.2-1.67-1.79-3.03ZM81.71,94.32c-1.9-.64-3.82.27-4.49,2.08-.53,1.42-2.08,2.07-3.42,1.54-1.35-.53-2-2.05-1.46-3.47,1.7-4.39,6.5-6.64,10.96-5.13,1.39.47,2.13,1.86,1.78,3.18-.37,1.4-1.86,2.31-3.37,1.8ZM105.94,100.71c-3.11,8.33-12.25,12.73-20.75,9.9-1.56-.52-2.34-1.84-1.9-3.39.34-1.2,1.83-2.2,3.24-1.69,5.91,2.14,12.38-.84,14.54-6.76.51-1.41,2.11-2.02,3.41-1.5,1.35.54,1.98,2.03,1.46,3.43Z"/>
    <path class="cls-1" d="M144.94,52.97c-3.45-1.18-6.83-1.95-10.49-2.4-7.4-.91-14.76-.92-22.16,0-3.7.46-7.14,1.25-10.6,2.45-1.26.44-2.07,1.53-2.07,2.87v1.84c2.69.05,5.16-.58,6.23,1.7l3.67,7.8c.43.18.94.41,1.22.68,1.44,1.42,3.55,1.38,5,.02,1.1-1.03,2.74-.97,3.73.1.9.98.97,2.55-.04,3.58-1.74,1.77-4.05,2.68-6.63,2.58l5.63,12.06c5.91-1.84,12.31-.29,16.61,4.07,1.05,1.07.93,2.77-.02,3.69-1.01.99-2.64,1.03-3.67,0-2.98-2.97-7.29-4.01-11.3-2.79,1.46,5.85,1.38,11.74-.14,17.45,1.36.39,2.79,1.08,4.19.77,12.64-2.81,21.77-13.48,23.01-26.38l.04-27.32c0-1.39-1-2.37-2.21-2.78ZM141.1,71.48c-3.3,3.53-8.76,3.62-12.28.36-1.11-1.03-1.26-2.63-.29-3.75.96-1.12,2.73-1.22,3.83-.13,1.37,1.35,3.51,1.35,4.94-.03,1.07-1.03,2.65-.94,3.62-.01.93.89,1.15,2.53.19,3.56Z"/>
  </g>
</svg>